<svg width="375" height="812" viewBox="0 0 375 812" fill="none" xmlns="http://www.w3.org/2000/svg">
<mask id="mask0" mask-type="alpha" maskUnits="userSpaceOnUse" x="0" y="0" width="375" height="812">
<rect width="375" height="812" fill="white"/>
</mask>
<g mask="url(#mask0)">
<rect width="375" height="812" fill="url(#paint0_linear)"/>
<path fill-rule="evenodd" clip-rule="evenodd" d="M150.937 919.223C148.293 951.173 120.535 981.082 132.672 1011.49C145.808 1044.39 179.705 1069.12 216.333 1083.04C253.931 1097.33 298.991 1103.83 335.673 1088.64C370.637 1074.16 384.66 1038.32 399.592 1007.14C411.029 983.254 411.034 957.789 410.783 931.777C410.545 907.23 405.925 884.331 398.174 860.647C386.64 825.407 393.467 774.306 354.643 760.241C316.151 746.297 283.998 792.36 245.466 805.327C213.059 816.233 168.035 805.375 147.695 829.883C127.303 854.452 153.453 888.801 150.937 919.223Z" fill="#DBC3AC"/>
<path fill-rule="evenodd" clip-rule="evenodd" d="M432.584 47.0142C476.096 24.9931 529.245 23.7621 563.454 -8.4251C600.481 -43.2639 616.505 -87.8603 616.91 -126.418C617.326 -165.996 603.785 -205.432 565.699 -222.119C529.396 -238.024 475.166 -221.805 426.635 -209.782C389.458 -200.572 355.811 -181.41 321.566 -161.638C289.251 -142.981 261.264 -122.204 233.779 -98.4366C192.882 -63.0707 122.013 -29.8429 122.497 10.5067C122.976 50.51 199.625 40.4896 235.68 60.2698C266.003 76.9055 273.768 119.594 316.137 116.741C358.612 113.882 391.154 67.9817 432.584 47.0142Z" fill="#F9D9C5"/>
<path d="M55.6357 -54.531C52.7845 -27.7949 51.8423 2.2226 69.5479 22.494C88.124 43.779 120.084 46.1184 148.359 44.8466C196.976 42.645 248.176 34.887 292.438 55.0695C315.013 65.3723 333.88 82.2476 355.533 94.3411C377.186 106.453 404.343 113.466 426.559 102.424" stroke="white" stroke-opacity="0.64" stroke-width="1.5" stroke-miterlimit="10"/>
<circle cx="341" cy="361" r="101" fill="url(#paint1_radial)" fill-opacity="0.6"/>
<ellipse cx="341.5" cy="59" rx="113.5" ry="114" fill="url(#paint2_radial)"/>
<g filter="url(#filter0_f)">
<rect width="375" height="812" fill="#FFF6ED" fill-opacity="0.35"/>
</g>
<g opacity="0.7">
<path d="M117.792 405.367C93.68 374.274 64.0455 370.309 38.5416 399.766C86.3363 395.372 61.1361 398.348 35.0179 408.075C78.8972 447.029 77.86 420.067 117.792 405.367Z" fill="white" fill-opacity="0.6"/>
<path d="M16.6358 400.639C76.279 343.946 24.5466 348.332 10.1975 306.235C-22.7841 333.05 -18.4313 367.76 8.80345 396.871C2.60453 342.287 6.66203 371.631 16.6358 400.639ZM6.01881 390.784C-30.8949 348.765 2.55032 315.641 9.23709 309.727C21.4783 340.946 70.2788 345.926 17.5402 396.905C7.79378 368.602 -1.05898 329.849 6.01881 390.784ZM72.3849 458.022C75.8454 440.337 68.1583 430.928 50.5745 430.196C54.558 434.11 68.3866 444.685 56.0511 432.643C71.844 434.921 71.3906 449.996 70.8415 454.759C58.5809 448.035 51.4579 454.106 50.1605 434.409C77.7263 450.279 60.8042 438.181 47.9942 430.771C48.3025 456.343 56.0922 448.618 72.3849 458.022ZM82.1916 356.392C64.9027 347.243 52.4777 352.073 46.1743 370.33C51.3242 367.446 66.0151 357.314 50.0499 365.827C57.5326 349.037 73.8803 354.798 78.6293 356.911C67.4 367.914 71.6569 377.618 50.0796 372.407C72.9226 350.811 57.3393 362.641 46.0072 373.41C72.3925 381.33 67.4259 370.296 82.1916 356.392ZM-9.28431 437.048C-7.56215 468.009 -19.8033 459.7 -37.5491 472.188C-39.0819 465.928 -43.4883 440.842 -17.3554 435.429C-32.9551 454.589 -18.3666 439.807 -12.2267 432.509C-36.946 436.059 -45.8691 451.741 -38.7317 475.599C-17.0483 459.886 -4.172 469.463 -7.526 433.24C-25.4056 445.9 -40.2908 459.395 -9.28431 437.048ZM16.3931 407.251C59.6439 429.504 35.5831 457.325 34.6697 492.889C26.4177 489.179 -15.3205 467.479 7.24941 416.489C18.9065 475.754 15.6154 437 16.3931 407.251ZM14.4062 403.948C13.5814 438.023 18.6747 465.574 8.07995 409.848C-9.12942 445.673 -2.903 480.207 36.6675 495.951C37.6074 455.641 63.2646 428.026 14.4062 403.948ZM105.725 411.406C86.7906 379.439 58.3939 371.894 29.0366 395.864C76.4496 398.034 51.352 397.501 24.3463 403.105C61.4423 444.939 64.4622 419.815 105.725 411.406ZM28.3138 404.408C53.5436 399.212 85.7872 396.828 34.617 394.057C71.5946 366.064 97.7146 402.605 102.434 409.959C67.7828 417.292 63.1357 441.127 28.3138 404.408Z" fill="#E6D1C5" fill-opacity="0.54"/>
</g>
<path d="M295.705 816.072C299.886 796.584 294.849 775.323 282.399 759.765C269.949 744.206 250.316 734.642 230.395 734.432C213.735 734.266 197.59 740.232 180.995 741.703C159.442 743.62 136.702 737.283 121.072 722.321C99.7125 701.844 94.5338 669.351 75.8088 646.423C62.4752 630.097 42.3686 619.512 21.3752 617.724C0.381774 615.936 -21.2184 623.008 -37.1282 636.84C-38.1408 634.958 -39.1767 633.081 -40.1846 631.222" stroke="#F3A497" stroke-width="1.7" stroke-miterlimit="10"/>
</g>
<defs>
<filter id="filter0_f" x="-100" y="-100" width="575" height="1012" filterUnits="userSpaceOnUse" color-interpolation-filters="sRGB">
<feFlood flood-opacity="0" result="BackgroundImageFix"/>
<feBlend mode="normal" in="SourceGraphic" in2="BackgroundImageFix" result="shape"/>
<feGaussianBlur stdDeviation="50" result="effect1_foregroundBlur"/>
</filter>
<linearGradient id="paint0_linear" x1="187.5" y1="0" x2="187.5" y2="812" gradientUnits="userSpaceOnUse">
<stop stop-color="#F1E3D5" stop-opacity="0.88"/>
<stop offset="0.526042" stop-color="#EFE8E0"/>
<stop offset="1" stop-color="#FCE6D1" stop-opacity="0.65"/>
</linearGradient>
<radialGradient id="paint1_radial" cx="0" cy="0" r="1" gradientUnits="userSpaceOnUse" gradientTransform="translate(341 361) rotate(90) scale(101)">
<stop stop-color="#FFD0CA" stop-opacity="0.72"/>
<stop offset="1" stop-color="#FDB4AA" stop-opacity="0"/>
</radialGradient>
<radialGradient id="paint2_radial" cx="0" cy="0" r="1" gradientUnits="userSpaceOnUse" gradientTransform="translate(341.5 59) rotate(90) scale(114 113.5)">
<stop stop-color="#FFDAC2"/>
<stop offset="1" stop-color="#FFDAC2" stop-opacity="0"/>
</radialGradient>
</defs>
</svg>
