<?xml version="1.0" encoding="utf-8"?>
<!-- Generator: Adobe Illustrator 24.1.2, SVG Export Plug-In . SVG Version: 6.00 Build 0)  -->
<svg version="1.1" id="Слой_1" xmlns="http://www.w3.org/2000/svg" x="0px" y="0px"
	 viewBox="0 0 375 691" style="enable-background:new 0 0 375 691;" xml:space="preserve">
<style type="text/css">
	.st0{fill:#FFFFFF;filter:url(#Adobe_OpacityMaskFilter);}
	.st1{mask:url(#mask0_1_);}
	.st2{fill:#FEF6ED;}
	.st3{fill:url(#SVGID_1_);}
	.st4{fill:#FCE4D5;}
	.st5{fill:#FB9172;}
	.st6{fill:#FAD7BE;fill-opacity:0.63;}
</style>
<defs>
	<filter id="Adobe_OpacityMaskFilter" x="-48" y="0" width="463.4" height="812">
		<feColorMatrix values="1 0 0 0 0  0 1 0 0 0  0 0 1 0 0  0 0 0 1 0"/>
	</filter>
</defs>
<mask x="-48" y="0" width="463.4" height="812" id="mask0_1_">
	<rect class="st0" width="375" height="812"/>
</mask>
<g class="st1">
	<rect class="st2" width="375" height="812"/>

		<radialGradient id="SVGID_1_" cx="-118.0935" cy="803.1028" r="1" gradientTransform="matrix(6.551861e-15 107 107 -6.551861e-15 -85873 12766)">
		<stop  offset="0" style="stop-color:#FFDAC2"/>
		<stop  offset="1" style="stop-color:#FFDAC2;stop-opacity:0"/>
	</radialGradient>
	<circle class="st3" cx="59" cy="130" r="107"/>
	<path class="st4" d="M329,156.1c22.7-24.5,41.6-37-1.1-7.5c23.8-54,36.3-43.8,87.5-47.3C395,124.3,372.5,198.1,329,156.1z"/>
	<path class="st5" d="M226.1,187.3c8-32.2,29.5-45.3,59.3-31.4c-38.4,12.9-17.9,6.6,5.6,5.2C270.4,206.1,262,185,226.1,187.3z"/>
	<path class="st6" d="M312.4,149.9c-68.5-36.3-20.4-45.3-18-87c36.7,16,41.5,48.5,24.2,81.6C310.4,93.6,314.1,121.1,312.4,149.9z
		 M319.5,138.3c22.9-47.3-15.8-68.8-23.4-72.5c-3.2,31.3-46.3,48,14.5,80.9C312.3,118.7,310.5,81.4,319.5,138.3z M276.3,215.8
		c-7.6-15.1-3-25.6,12.8-30.6c-2.6,4.5-12.5,17.6-4.4,3.6c-13.8,6-9.5,19.5-7.8,23.7c9.4-9.2,17.4-5.4,13.6-23.6
		c-21,21.3-8.7,6.1,1-3.8C297.7,208.2,288.7,203.2,276.3,215.8z M241.7,126.3c13.4-12.6,25.9-11.4,36.2,3.6
		c-5.4-1.3-21.3-6.8-4.7-3.1c-11-13.3-24.4-4-28.2-0.9c13,7.1,11.6,17,29.8,6.9c-26.2-13.8-9.1-7,4-0.1
		C256.9,146.4,258.6,135.1,241.7,126.3z M345.1,176.3c6.3,28.4,15.3,17.9,34.5,24.7c-0.2-6-2.5-29.8-27.6-28.2
		c19,13.4,2,3.7-5.4-1.4c23.3-3,35.4,9,34.9,32.3c-23.7-8.8-32.9,3.1-39-30.5C362,180.3,378.9,188.7,345.1,176.3z M353.4,61.4
		c12.2,19.6,8,36.3-13.7,45.6c3.9-8.3,12.7-23.3,4-3.9c22.4-11.3,12.4-33,9.5-38.3c-13.2,15.8-26.1,11.5-17.2,38.8
		c23.2-28.5,12.4-12.2-0.7,3.9C323.3,75.6,336.7,81.9,353.4,61.4z M314.3,155.8c-33.6,31-4.8,50.1,5.1,82.1c6.6-5.4,39-35.5,5.6-76
		C329.3,218.4,322.5,182.5,314.3,155.8z M315.2,152.3c9.4,30.6,11.7,56.8,7.2,3.8c24.7,28.1,27.8,60.9-4.2,85.1
		C307.2,204.9,277,186.3,315.2,152.3z M234.2,181.9c9.1-33.7,33-47.6,65.7-33.3c-42.5,13.8-19.8,7.1,6.1,5.4
		C282.9,201.2,273.8,179.2,234.2,181.9z M302.7,156.2c-24.2,1.6-54.1,7.6-8.3-7.8c-40.6-16.1-55.1,23.5-57.5,31.4
		C270.1,177.8,280.4,198.1,302.7,156.2z"/>
</g>
</svg>
