<svg width="375" height="812" viewBox="0 0 375 812" fill="none" xmlns="http://www.w3.org/2000/svg">
<mask id="mask0" mask-type="alpha" maskUnits="userSpaceOnUse" x="0" y="0" width="375" height="812">
<rect width="375" height="812" fill="white"/>
</mask>
<g mask="url(#mask0)">
<rect width="375" height="812" fill="#FEF6ED"/>
<circle cx="59" cy="130" r="107" fill="url(#paint0_radial)"/>
<path d="M328.994 156.079C351.7 131.624 370.569 119.108 327.887 148.618C351.637 94.6486 364.166 104.866 415.37 101.302C394.966 124.262 372.509 198.107 328.994 156.079Z" fill="#FCE4D5"/>
<path d="M226.114 187.341C234.115 155.177 255.66 142.011 285.442 155.981C247.004 168.911 267.496 162.601 291.006 161.175C270.416 206.135 261.998 185.027 226.114 187.341Z" fill="#FB9172"/>
<path d="M312.364 149.864C243.901 113.528 291.965 104.528 294.35 62.8484C331.062 78.8388 335.884 111.33 318.521 144.492C310.353 93.5589 314.086 121.122 312.364 149.864ZM319.51 138.288C342.396 91.0224 303.668 69.4405 296.104 65.7662C292.883 97.0775 249.848 113.816 310.599 146.713C312.293 118.666 310.535 81.3888 319.51 138.288ZM276.265 215.75C268.655 200.619 273.254 190.18 289.029 185.111C286.403 189.65 276.523 202.682 284.677 188.697C270.918 194.716 275.139 208.241 276.841 212.411C286.27 203.256 294.27 206.961 290.469 188.818C269.46 210.085 281.762 194.898 291.516 184.984C297.699 208.194 288.677 203.159 276.265 215.75ZM241.68 126.27C255.06 113.659 267.558 114.913 277.894 129.85C272.49 128.531 256.596 123.048 273.238 126.748C262.203 113.434 248.821 122.744 245.045 125.846C258.018 132.985 256.606 142.83 274.874 132.707C248.683 118.897 265.817 125.693 278.824 132.594C256.877 146.373 258.596 135.146 241.68 126.27ZM345.092 176.304C351.353 204.744 360.364 194.159 379.627 201.008C379.436 194.961 377.096 171.162 352.008 172.816C371.009 186.239 354.032 176.523 346.615 171.46C369.949 168.476 382.011 180.425 381.562 203.797C357.91 195.018 348.643 206.91 342.533 173.3C361.961 180.271 378.882 188.748 345.092 176.304ZM353.371 61.3608C365.547 80.9567 361.395 97.6588 339.705 106.974C343.605 98.6546 352.41 83.6686 343.668 103.061C366.115 91.7282 356.027 70.0356 353.127 64.7446C339.941 80.5152 327 76.2647 335.933 103.574C359.182 75.0944 348.383 91.3689 335.268 107.474C323.337 75.6489 336.694 81.9071 353.371 61.3608ZM314.255 155.785C280.622 186.757 309.492 205.895 319.309 237.838C325.861 232.414 358.261 202.32 324.889 161.85C329.286 218.386 322.479 182.502 314.255 155.785ZM315.224 152.299C324.584 182.917 326.924 209.119 322.457 156.05C347.131 184.145 350.207 216.947 318.269 241.109C307.229 204.878 276.962 186.328 315.224 152.299ZM234.223 181.937C243.33 148.272 267.198 134.327 299.902 148.653C257.415 162.501 280.061 155.728 305.989 154.028C282.891 201.172 273.8 179.2 234.223 181.937ZM302.717 156.201C278.504 157.825 248.635 163.751 294.38 148.417C253.743 132.362 239.27 171.967 236.845 179.803C270.149 177.75 280.39 198.148 302.717 156.201Z" fill="#FAD7BE" fill-opacity="0.63"/>
</g>
<defs>
<radialGradient id="paint0_radial" cx="0" cy="0" r="1" gradientUnits="userSpaceOnUse" gradientTransform="translate(59 130) rotate(90) scale(107)">
<stop stop-color="#FFDAC2"/>
<stop offset="1" stop-color="#FFDAC2" stop-opacity="0"/>
</radialGradient>
</defs>
</svg>
